<svg width="224" height="128" viewBox="0 0 224 128" fill="none" xmlns="http://www.w3.org/2000/svg">
<path fill-rule="evenodd" clip-rule="evenodd" d="M73 28.0001C73 32.4184 69.4183 36.0001 65 36.0001H8C3.58172 36.0001 0 39.5819 0 44.0001V84.0001C0 88.4184 3.58172 92.0001 8 92.0001H65C69.4183 92.0001 73 95.5819 73 100V120C73 124.418 76.5817 128 81 128H143C147.418 128 151 124.418 151 120V100C151 95.5819 154.582 92.0001 159 92.0001H216C220.418 92.0001 224 88.4184 224 84.0001V44.0001C224 39.5819 220.418 36.0001 216 36.0001H159C154.582 36.0001 151 32.4184 151 28.0001V8C151 3.58173 147.418 0 143 0H81C76.5817 0 73 3.58172 73 8V28.0001ZM129.799 76.0488C132.998 78.8105 137.455 80.1914 143.171 80.1914H167.083C168.188 80.1914 169.083 79.296 169.083 78.1914V74.9733C169.083 73.8687 168.188 72.9733 167.083 72.9733H143.171C139.639 72.9733 137.205 71.8079 135.87 69.4772C135.231 68.3615 136.208 67.1361 137.494 67.1361H159.166C166.886 67.1361 170.747 63.8513 170.747 57.2818C170.747 54.0598 169.744 51.591 167.74 49.8754C165.777 48.118 162.92 47.2393 159.166 47.2393H143.171C137.455 47.2393 132.998 48.641 129.799 51.4446C126.6 54.2063 125 58.307 125 63.7467C125 69.1446 126.6 73.2453 129.799 76.0488ZM136.132 57.5247C137.532 55.4798 139.878 54.4573 143.171 54.4573H158.718C160.552 54.4573 161.469 55.3361 161.469 57.0935C161.469 57.9722 161.213 58.6627 160.702 59.1648C160.232 59.6669 159.571 59.918 158.718 59.918H137.685C136.36 59.918 135.383 58.6182 136.132 57.5247ZM176.736 76.6579C175.724 77.9731 176.661 79.8776 178.321 79.8776H184.142C184.768 79.8776 185.357 79.5851 185.735 79.0871L194.068 68.1148C194.446 67.6168 195.035 67.3244 195.661 67.3244H198.29C198.911 67.3244 199.497 67.6126 199.875 68.1046L208.336 79.0974C208.714 79.5893 209.3 79.8776 209.921 79.8776H215.699C217.356 79.8776 218.295 77.9777 217.287 76.6618L208.331 64.9624C207.782 64.245 207.782 63.2484 208.331 62.531L217.287 50.8316C218.295 49.5157 217.356 47.6159 215.699 47.6159H209.921C209.3 47.6159 208.714 47.9046 208.336 48.3973L199.939 59.3248C199.561 59.8175 198.975 60.1063 198.353 60.1063H195.658C195.034 60.1063 194.446 59.8154 194.068 59.3197L185.735 48.4024C185.357 47.9067 184.769 47.6159 184.145 47.6159H178.321C176.661 47.6159 175.724 49.5203 176.736 50.8355L185.732 62.527C186.285 63.246 186.285 64.2474 185.732 64.9664L176.736 76.6579Z" fill="#353334"/>
</svg>
