<svg width="1885" height="249" viewBox="0 0 1885 249" fill="none" xmlns="http://www.w3.org/2000/svg">
<path fill-rule="evenodd" clip-rule="evenodd" d="M1622.52 0.368896C1641.17 0.368896 1657.21 5.03389 1670.62 14.3659C1684.03 23.5029 1694.13 36.1389 1700.94 52.2739C1707.74 68.4099 1711.14 86.8779 1711.14 107.679C1711.14 128.48 1707.74 146.949 1700.94 163.084C1694.13 179.22 1684.03 191.953 1670.62 201.284C1657.21 210.421 1641.17 214.99 1622.52 214.99C1603.86 214.99 1587.82 210.421 1574.41 201.284C1561 191.953 1550.9 179.22 1544.09 163.084C1537.29 146.949 1533.89 128.48 1533.89 107.679C1533.89 86.8779 1537.29 68.4099 1544.09 52.2739C1550.9 36.1389 1561 23.5029 1574.41 14.3659C1587.82 5.03389 1603.86 0.368896 1622.52 0.368896ZM1622.52 40.0269C1632.84 40.0269 1641.25 43.4519 1647.77 50.3029L1584.67 141.547C1581.91 131.905 1580.54 120.616 1580.54 107.679C1580.54 87.0719 1584.03 70.6449 1591.03 58.3979C1598.22 46.1509 1608.72 40.0269 1622.52 40.0269ZM1622.52 175.332C1612.18 175.332 1603.7 171.898 1597.08 165.032L1660.22 73.7239C1663.07 83.3849 1664.5 94.7039 1664.5 107.679C1664.5 128.286 1660.9 144.713 1653.71 156.96C1646.71 169.208 1636.31 175.332 1622.52 175.332Z" fill="white"/>
<path d="M1711.69 210.324L1766.49 129.841L1716.35 56.3569H1768.83L1789.82 94.5569C1792.15 98.6389 1793.31 102.722 1793.31 106.804C1793.31 108.554 1793.61 110.012 1794.19 111.178C1794.97 112.345 1796.23 112.928 1797.98 112.928C1799.73 112.928 1800.89 112.345 1801.48 111.178C1802.25 110.012 1802.64 108.554 1802.64 106.804C1802.64 102.722 1803.81 98.6389 1806.14 94.5569L1827.13 56.3569H1879.61L1829.46 129.841L1884.27 210.324H1831.8L1806.14 164.834C1804.2 161.723 1803.03 157.641 1802.64 152.586V151.712C1802.25 148.212 1800.7 146.463 1797.98 146.463C1796.23 146.463 1795.06 147.046 1794.48 148.212C1793.9 149.184 1793.51 150.642 1793.31 152.586C1792.93 157.641 1791.76 161.723 1789.82 164.834L1764.16 210.324H1711.69Z" fill="white"/>
<path fill-rule="evenodd" clip-rule="evenodd" d="M1065.18 9.56592H1031.63V65.1369C1031.63 67.7579 1031.9 70.2039 1032.42 72.4759C1033.12 74.7479 1034.08 77.1069 1035.3 79.5539C1035.48 79.7279 1035.56 79.9899 1035.56 80.3399C1035.74 80.5149 1035.83 80.6889 1035.83 80.8639C1036.53 82.2619 1036.87 83.4849 1036.87 84.5339C1037.05 85.4079 1036.61 86.1069 1035.56 86.6309C1034.52 87.1549 1033.64 87.1549 1032.94 86.6309C1032.42 85.9319 1031.81 85.0579 1031.11 84.0099C1031.11 83.8349 1031.02 83.7479 1030.85 83.7479V83.4849C1026.83 75.6219 1021.06 69.4179 1013.55 64.8749C1006.21 60.1559 997.39 57.7969 987.08 57.7969C975.38 57.7969 964.9 60.9429 955.64 67.2339C946.55 73.5249 939.48 82.0869 934.41 92.9219C929.34 103.757 926.81 115.814 926.81 129.095C926.81 142.376 929.34 154.434 934.41 165.269C939.48 176.103 946.55 184.666 955.64 190.957C964.9 197.248 975.38 200.394 987.08 200.394C996.87 200.394 1005.25 198.122 1012.24 193.578C1019.23 188.86 1025.43 182.482 1030.85 174.443L1031.11 173.919C1031.46 173.045 1031.9 172.433 1032.42 172.084C1033.12 171.56 1033.91 171.472 1034.78 171.822C1036 172.346 1036.61 173.045 1036.61 173.919C1036.61 174.793 1036.26 175.928 1035.56 177.326L1035.3 178.113C1032.86 183.006 1031.63 187.724 1031.63 192.268V198.297H1065.18V9.56592ZM1014.08 164.482C1008.49 168.152 1002.11 169.987 994.95 169.987C987.43 169.987 981.06 168.152 975.82 164.482C970.57 160.813 966.64 155.92 964.02 149.803C961.58 143.512 960.35 136.61 960.35 129.095C960.35 121.581 961.58 114.766 964.02 108.65C966.64 102.359 970.57 97.3779 975.82 93.7079C981.06 90.0389 987.43 88.2039 994.95 88.2039C1002.11 88.2039 1008.49 90.0389 1014.08 93.7079C1019.67 97.3779 1023.95 102.359 1026.92 108.65C1030.06 114.941 1031.63 121.756 1031.63 129.095C1031.63 136.435 1030.06 143.25 1026.92 149.541C1023.95 155.832 1019.67 160.813 1014.08 164.482Z" fill="white"/>
<path fill-rule="evenodd" clip-rule="evenodd" d="M75.0669 13.76C99.5249 13.76 117.607 19.265 129.312 30.274C141.018 41.283 146.87 55.351 146.87 72.476C146.87 83.136 144.162 92.922 138.746 101.834C133.505 110.747 125.731 117.911 115.423 123.329C105.291 128.571 93.2359 131.192 79.2599 131.192H35.7579V198.297H0.118896V13.76H75.0669ZM78.9979 101.834C88.7809 101.834 96.5549 99.213 102.321 93.971C108.261 88.553 111.231 81.738 111.231 73.525C111.231 64.612 108.348 57.71 102.583 52.817C96.9919 47.749 89.1309 45.215 78.9979 45.215H35.7579V101.834H78.9979Z" fill="white"/>
<path fill-rule="evenodd" clip-rule="evenodd" d="M229.686 57.7969C243.662 57.7969 255.891 60.9429 266.374 67.2339C276.856 73.5249 284.892 82.0869 290.483 92.9219C296.073 103.757 298.869 115.814 298.869 129.095C298.869 142.376 296.073 154.434 290.483 165.269C284.892 176.103 276.856 184.666 266.374 190.957C255.891 197.248 243.662 200.394 229.686 200.394C215.71 200.394 203.48 197.248 192.998 190.957C182.516 184.666 174.479 176.103 168.889 165.269C163.298 154.434 160.503 142.376 160.503 129.095C160.503 115.814 163.298 103.757 168.889 92.9219C174.479 82.0869 182.516 73.5249 192.998 67.2339C203.48 60.9429 215.71 57.7969 229.686 57.7969ZM229.686 169.987C237.023 169.987 243.4 168.239 248.816 164.744C254.232 161.075 258.337 156.182 261.133 150.065C263.928 143.774 265.325 136.784 265.325 129.095C265.325 121.406 263.928 114.504 261.133 108.387C258.337 102.096 254.232 97.2029 248.816 93.7079C243.4 90.0389 237.023 88.2039 229.686 88.2039C222.348 88.2039 215.972 90.0389 210.556 93.7079C205.14 97.2029 201.034 102.096 198.239 108.387C195.444 114.504 194.046 121.406 194.046 129.095C194.046 136.784 195.444 143.774 198.239 150.065C201.034 156.182 205.14 161.075 210.556 164.744C215.972 168.239 222.348 169.987 229.686 169.987Z" fill="white"/>
<path d="M339.893 59.894H304.253L344.086 198.297H388.111L406.717 109.96C407.59 105.417 408.027 99.912 408.027 93.446V91.349C408.027 90.301 408.202 89.427 408.551 88.728C409.075 87.854 409.949 87.4171 411.172 87.4171C412.395 87.4171 413.181 87.854 413.53 88.728C414.054 89.427 414.316 90.301 414.316 91.349V93.446C414.316 99.912 414.753 105.417 415.627 109.96L434.233 198.297H478.258L518.091 59.894H482.451L460.7 155.308C459.827 159.502 459.39 164.395 459.39 169.987V172.084C459.39 173.132 459.128 174.094 458.604 174.967C458.255 175.666 457.468 176.016 456.245 176.016C455.022 176.016 454.149 175.666 453.625 174.967C453.275 174.094 453.101 173.132 453.101 172.084C453.101 164.744 452.664 159.152 451.79 155.308L431.088 59.894H391.256L370.553 155.308C369.68 159.152 369.243 164.744 369.243 172.084C369.243 173.132 368.981 174.094 368.457 174.967C368.107 175.666 367.321 176.016 366.098 176.016C364.875 176.016 364.002 175.666 363.478 174.967C363.128 174.094 362.954 173.132 362.954 172.084V169.987C362.954 164.395 362.517 159.502 361.643 155.308L339.893 59.894Z" fill="white"/>
<path fill-rule="evenodd" clip-rule="evenodd" d="M560.329 152.425C558.146 148.058 556.765 143.077 556.187 137.483H656.765C657.289 133.464 657.551 130.056 657.551 127.26C657.551 111.358 654.407 98.2519 648.117 87.9419C642.003 77.4569 633.966 69.8549 624.008 65.1369C614.225 60.2439 603.655 57.7969 592.299 57.7969C578.323 57.7969 566.094 60.7679 555.612 66.7089C545.304 72.4759 537.355 80.7769 531.765 91.6109C526.174 102.271 523.379 114.766 523.379 129.095C523.379 142.901 526.087 155.221 531.502 166.055C536.918 176.715 544.867 185.103 555.35 191.219C565.832 197.335 578.323 200.394 592.824 200.394C604.703 200.394 614.924 198.297 623.484 194.103C632.219 189.734 639.12 183.792 644.186 176.278C649.428 168.764 653.096 160.026 655.193 150.065H621.126C619.029 156.706 615.71 161.861 611.167 165.531C606.625 169.201 600.598 171.035 593.086 171.035C585.399 171.035 578.76 169.463 573.169 166.317C567.579 162.997 563.299 158.366 560.329 152.425ZM615.098 93.1839C620.339 98.6009 623.309 105.679 624.008 114.416H557.553C558.935 108.138 561.171 102.634 564.259 97.9019C569.85 89.3399 579.546 85.0579 593.348 85.0579C602.607 85.0579 609.857 87.7669 615.098 93.1839Z" fill="white"/>
<path d="M712.307 88.9899C711.783 89.5139 711.171 89.6889 710.472 89.5139C709.249 89.3399 708.551 88.8149 708.376 87.9419C708.201 86.8929 708.376 85.5829 708.9 84.0099V83.7479C709.075 83.7479 709.162 83.6599 709.162 83.4849C711.783 78.2429 713.093 72.9129 713.093 67.4959V59.8939H679.55V198.297H713.093V138.27C713.093 126.212 714.578 116.688 717.548 109.698C720.692 102.708 725.846 97.8149 733.009 95.0189C740.347 92.0479 750.479 90.9999 763.408 91.8739V57.7969C752.576 57.7969 744.015 58.8459 737.726 60.9429C731.437 63.0399 726.632 66.0979 723.313 70.1169C719.994 74.1359 716.762 79.7279 713.617 86.8929V87.1549C713.268 87.6799 712.831 88.2909 712.307 88.9899Z" fill="white"/>
<path fill-rule="evenodd" clip-rule="evenodd" d="M809.834 152.425C807.652 148.058 806.271 143.077 805.692 137.483H906.27C906.79 133.464 907.06 130.056 907.06 127.26C907.06 111.358 903.91 98.2519 897.62 87.9419C891.51 77.4569 883.47 69.8549 873.51 65.1369C863.73 60.2439 853.16 57.7969 841.805 57.7969C827.829 57.7969 815.6 60.7679 805.117 66.7089C794.81 72.4759 786.861 80.7769 781.27 91.6109C775.68 102.271 772.884 114.766 772.884 129.095C772.884 142.901 775.592 155.221 781.008 166.055C786.424 176.715 794.373 185.103 804.855 191.219C815.338 197.335 827.829 200.394 842.329 200.394C854.21 200.394 864.43 198.297 872.99 194.103C881.72 189.734 888.63 183.792 893.69 176.278C898.93 168.764 902.6 160.026 904.7 150.065H870.63C868.53 156.706 865.22 161.861 860.67 165.531C856.13 169.201 850.104 171.035 842.591 171.035C834.904 171.035 828.266 169.463 822.675 166.317C817.085 162.997 812.804 158.366 809.834 152.425ZM864.6 93.1839C869.85 98.6009 872.82 105.679 873.51 114.416H807.059C808.441 108.138 810.676 102.634 813.765 97.9019C819.356 89.3399 829.052 85.0579 842.853 85.0579C852.113 85.0579 859.36 87.7669 864.6 93.1839Z" fill="white"/>
<path fill-rule="evenodd" clip-rule="evenodd" d="M1210.06 65.1369C1210.06 67.7579 1209.71 70.2039 1209.01 72.4759C1208.48 74.7479 1207.61 77.1069 1206.39 79.5539C1206.21 79.7279 1206.13 79.9029 1206.13 80.0779C1206.13 80.2529 1206.04 80.4269 1205.86 80.6019C1205.17 82.1749 1204.73 83.4849 1204.55 84.5339C1204.55 85.4079 1205.08 86.1069 1206.13 86.6309C1207.17 87.1549 1207.96 87.1549 1208.48 86.6309C1209.18 85.9319 1209.88 85.0579 1210.58 84.0099V83.7479L1210.84 83.4849C1215.39 75.6219 1221.24 69.4179 1228.4 64.8749C1235.74 60.1559 1244.47 57.7969 1254.61 57.7969C1266.31 57.7969 1276.71 60.9429 1285.79 67.2339C1295.05 73.5249 1302.21 82.0869 1307.28 92.9219C1312.35 103.757 1314.88 115.814 1314.88 129.095C1314.88 142.376 1312.35 154.434 1307.28 165.269C1302.21 176.103 1295.05 184.666 1285.79 190.957C1276.71 197.248 1266.31 200.394 1254.61 200.394C1244.65 200.394 1235.91 198.122 1228.4 193.578C1221.06 188.86 1215.21 182.482 1210.84 174.443L1210.58 173.919C1210.23 173.045 1209.71 172.433 1209.01 172.084C1208.48 171.56 1207.79 171.472 1206.91 171.822C1205.69 172.346 1205.08 173.045 1205.08 173.919C1205.08 174.793 1205.43 175.928 1206.13 177.326L1206.39 178.113C1208.83 183.006 1210.06 187.724 1210.06 192.268V198.297H1176.51V9.56592H1210.06V65.1369ZM1246.74 169.987C1254.26 169.987 1260.63 168.152 1265.87 164.482C1271.12 160.813 1274.96 155.92 1277.41 149.803C1280.03 143.512 1281.34 136.61 1281.34 129.095C1281.34 121.581 1280.03 114.766 1277.41 108.65C1274.96 102.359 1271.12 97.3779 1265.87 93.7079C1260.63 90.0389 1254.26 88.2039 1246.74 88.2039C1239.58 88.2039 1233.21 90.0389 1227.61 93.7079C1222.02 97.3779 1217.66 102.359 1214.51 108.65C1211.54 114.941 1210.06 121.756 1210.06 129.095C1210.06 136.435 1211.54 143.25 1214.51 149.541C1217.66 155.832 1222.02 160.813 1227.61 164.482C1233.21 168.152 1239.58 169.987 1246.74 169.987Z" fill="white"/>
<path d="M1358.01 59.894H1322.37L1376.35 200.131L1373.47 208.519C1372.6 211.141 1371.64 213.15 1370.59 214.548C1369.54 215.946 1368.23 216.907 1366.66 217.432C1365.09 218.131 1362.9 218.655 1360.11 219.004C1358.88 219.179 1357.49 219.267 1355.91 219.267H1334.43V248.625H1359.58C1367.62 248.625 1374.52 247.489 1380.28 245.217C1386.05 242.945 1391.03 239.276 1395.22 234.208C1399.41 229.14 1403.08 222.5 1406.23 214.286L1464.93 59.894H1429.29L1399.68 149.279C1398.45 152.949 1397.67 157.143 1397.32 161.861V165.007C1397.32 166.405 1397.06 167.54 1396.53 168.414C1396.18 169.113 1395.4 169.463 1394.17 169.463C1392.95 169.463 1392.08 169.026 1391.55 168.152C1391.2 167.278 1391.03 166.23 1391.03 165.007C1391.03 161.861 1390.85 159.065 1390.51 156.619C1390.33 154.172 1389.81 151.726 1388.93 149.279L1358.01 59.894Z" fill="white"/>
</svg>
